<?xml version="1.0" standalone="no"?>
<!DOCTYPE svg PUBLIC "-//W3C//DTD SVG 20010904//EN"
 "http://www.w3.org/TR/2001/REC-SVG-20010904/DTD/svg10.dtd">
<svg version="1.0" xmlns="http://www.w3.org/2000/svg"
 width="512.000000pt" height="512.000000pt" viewBox="0 0 512.000000 512.000000"
 preserveAspectRatio="xMidYMid meet">

<g transform="translate(0.000000,512.000000) scale(0.100000,-0.100000)"
fill="#000000" stroke="none">
<path d="M1855 3986 c-41 -18 -83 -69 -91 -111 -17 -90 -42 -61 609 -712 l602
-603 -602 -602 c-653 -654 -626 -622 -608 -715 9 -49 69 -109 118 -118 93 -18
54 -52 789 683 599 600 678 681 683 715 17 93 51 55 -673 781 -385 386 -681
674 -699 682 -40 17 -89 17 -128 0z"/>
</g>
</svg>
